# xmcd
#
# Track frame offsets: 
#        150
#        12003
#        22835
#        36117
#        47299
#        59140
#        70792
#        83600
#        96584
#        109454
#        119691
#        132377
#        146421
#        158829
#        171750
#        182980
#        195071
#        208397
#        220730
#        232716
#
# Disc length: 3267 seconds
#
# Revision: 0
# Processed by: cddbd v1.5.2PL0 Copyright (c) Steve Scherf et al.
# Submitted via: ExactAudioCopy v0.99pb5
#
DISCID=140cc114
DTITLE=Various Artist - Western Swing - The Absolute Essential - CD1
DYEAR=1940
DGENRE=Country
TTITLE0=Bob Willis and Texas Playboys - Lil Liza Jane
TTITLE1=Light Crust Doughboys - Pussy Pussy Pussy
TTITLE2=Milton Brown and His Musical Brownies - Brownie's Stomp
TTITLE3=Ted Daffan's Texans - Worried Mind
TTITLE4=Bill Boyd and His Cowboy Ramblers - Drink The Barrel Dry
TTITLE5=Bob Willis and Texas Playboys - New San Antonio Rose
TTITLE6=Spade Cooley and HO - Shame On You
TTITLE7=Roy Newman - I Can't Dance (I've Got Ants In My Pants)
TTITLE8=Light Crust Doughboys - Good Gracious Gracie
TTITLE9=Hank Penny - I Want My Rib
TTITLE10=Al Dexter - Wine Women And Song
TTITLE11=Milton Brown - Sweet Jennie Lee
TTITLE12=Sons Of The West - Sally's Got A Wooden Leg
TTITLE13=Tune Wranglers - Red's Tight Like That
TTITLE14=Adolph Hofner and His San Antonians - Cotton Eyed Joe
TTITLE15=Bob Willis and Texas Playboys - Ida Red Likes To Boogie
TTITLE16=Tex Williams and His Western Caravan - I Got Texas In My Soul
TTITLE17=Sunshine Boys - What's The Matter with Deep Elem
TTITLE18=Spade Cooley - Detour
TTITLE19=Milton Brown - Crafton Blues
EXTD=
EXTT0=
EXTT1=
EXTT2=
EXTT3=
EXTT4=
EXTT5=
EXTT6=
EXTT7=
EXTT8=
EXTT9=
EXTT10=
EXTT11=
EXTT12=
EXTT13=
EXTT14=
EXTT15=
EXTT16=
EXTT17=
EXTT18=
EXTT19=
PLAYORDER=
